<svg id="Layer_1" data-name="Layer 1" xmlns="http://www.w3.org/2000/svg" viewBox="0 0 63.16 57.34"><g id="_0odBIz.tif" data-name="0odBIz.tif"><path d="M67.43,25.91h0a12.67,12.67,0,0,1,5.7,1.48A11.54,11.54,0,0,1,79.89,37.6C79.82,41.4,79,44,77,46.26,69.13,55.51,61.8,64.07,54.61,72.42a2.06,2.06,0,0,1-1.26.84A2.16,2.16,0,0,1,52,72.35l-5.5-6.42C41,59.59,35.41,53,29.93,46.53c-3.44-4.08-4.09-8.38-2-13.15s5.61-7.06,11-7.37h.64a11.64,11.64,0,0,1,7.06,2.48,11.41,11.41,0,0,0,6.73,2.6A11.59,11.59,0,0,0,60,28.55a12.85,12.85,0,0,1,7.41-2.64m0-5a17.75,17.75,0,0,0-10.3,3.55,6.81,6.81,0,0,1-3.81,1.62,6.52,6.52,0,0,1-3.76-1.63,16.73,16.73,0,0,0-10-3.45c-.31,0-.62,0-.92,0-7.1.4-12.42,3.81-15.28,10.36s-1.87,12.86,2.78,18.37C33.41,58.41,40.82,67,48.19,75.6a6.86,6.86,0,0,0,5.16,2.66,6.7,6.7,0,0,0,5-2.58Q69.65,62.61,80.83,49.5c2.7-3.17,4-6.89,4.06-12a16.58,16.58,0,0,0-9.5-14.58,17.53,17.53,0,0,0-8-2Z" transform="translate(-21.72 -20.91)"/></g></svg>