<svg id="Layer_1" data-name="Layer 1" xmlns="http://www.w3.org/2000/svg" xmlns:xlink="http://www.w3.org/1999/xlink" viewBox="0 0 2226 1850.9"><defs><style>.cls-1{fill:none;}.cls-2{fill:#1ed760;}.cls-3{clip-path:url(#clip-path);}.cls-4{fill:#2d46b9;}</style><clipPath id="clip-path" transform="translate(-194.6 -0.02)"><circle class="cls-1" cx="669.6" cy="1375.92" r="475"/></clipPath></defs><polygon class="cls-2" points="2194.3 812.48 1912.1 1039.88 1523.7 557.88 1506.1 572.08 1913.6 1077.58 2213.3 835.98 2194.3 812.48"/><polygon class="cls-2" points="1923.4 931.48 1550.6 468.88 1507.6 503.58 1915 1009.08 2214.8 767.48 2180.1 724.48 1923.4 931.48"/><polygon class="cls-2" points="2164.3 582.48 1921.9 777.88 1576.2 348.88 1518.8 395.08 1926.3 900.68 2226 659.08 2164.3 582.48"/><rect class="cls-2" x="1873.07" y="48.94" width="385" height="649.29" transform="translate(28.27 1378.85) rotate(-38.87)"/><path class="cls-2" d="M423,1167.32v51.5h77.2c34.9,0,62.5-20.1,82.7-44.1,12.9-12.9,24-31.3,35-45.9,9.2,16.5,20.2,31.2,33.1,45.9,22.1,24,51.4,44.1,86.4,44.1h369.5l-66.2,64.3,35,38.6,115.9-115.9,18.4-18.3-18.4-16.5-114-119.5-36.8,36.7,75.4,79H737.4c-14.7,0-29.4-9.1-47.8-27.5a318.58,318.58,0,0,1-42.3-60.7c12.9-23.9,25.8-45.9,38.7-60.6,14.7-18.4,27.5-27.6,40.4-27.6H939.7l-73.6,71.6,36.8,38.6,115.8-113.9,18.4-18.4-18.3-18.3L904.7,831.12l-38.6,36.7,69.8,71.7H726.4c-34.9,0-60.7,22.1-79.1,46-12.9,12.8-22.1,27.5-31.3,44.1-9.1-16.6-18.3-31.3-29.4-44.1-20.2-23.9-44.1-46-77.2-46H443.2V991h66.2c9.2,0,22,7.3,36.8,27.6,12.9,14.7,25.7,36.7,40.4,58.8-14.7,23.8-27.6,45.9-42.3,62.5-16.5,18.3-29.4,27.5-44.1,27.5H423Z" transform="translate(-194.6 -0.02)"/><circle class="cls-2" cx="475" cy="1375.9" r="475"/><circle class="cls-2" cx="475" cy="1375.9" r="475"/><g class="cls-3"><path class="cls-4" d="M423,1167.32v51.5h77.2c34.9,0,62.5-20.1,82.7-44.1,12.9-12.9,24-31.3,35-45.9,9.2,16.5,20.2,31.2,33.1,45.9,22.1,24,51.4,44.1,86.4,44.1h369.5l-66.2,64.3,35,38.6,115.9-115.9,18.4-18.3-18.4-16.5-114-119.5-36.8,36.7,75.4,79H737.4c-14.7,0-29.4-9.1-47.8-27.5a318.58,318.58,0,0,1-42.3-60.7c12.9-23.9,25.8-45.9,38.7-60.6,14.7-18.4,27.5-27.6,40.4-27.6H939.7l-73.6,71.6,36.8,38.6,115.8-113.9,18.4-18.4-18.3-18.3L904.7,831.12l-38.6,36.7,69.8,71.7H726.4c-34.9,0-60.7,22.1-79.1,46-12.9,12.8-22.1,27.5-31.3,44.1-9.1-16.6-18.3-31.3-29.4-44.1-20.2-23.9-44.1-46-77.2-46H443.2V991h66.2c9.2,0,22,7.3,36.8,27.6,12.9,14.7,25.7,36.7,40.4,58.8-14.7,23.8-27.6,45.9-42.3,62.5-16.5,18.3-29.4,27.5-44.1,27.5H423Z" transform="translate(-194.6 -0.02)"/></g><circle class="cls-2" cx="801.14" cy="348.88" r="87.3"/></svg>