<?xml version="1.0" encoding="utf-8"?>
<!-- Generator: Adobe Illustrator 25.4.1, SVG Export Plug-In . SVG Version: 6.00 Build 0)  -->
<svg version="1.1" id="Layer_1" xmlns="http://www.w3.org/2000/svg" xmlns:xlink="http://www.w3.org/1999/xlink" x="0px" y="0px"
	 viewBox="0 0 2420 1503" style="enable-background:new 0 0 2420 1503;" xml:space="preserve">
<style type="text/css">
	.st0{fill:#1ED760;}
	.st1{clip-path:url(#XMLID_00000013157105621457315450000002893412235850257064_);fill:#2D46B9;}
</style>
<polygon class="st0" points="2388.9,812.5 2106.7,1039.9 1718.3,557.9 1700.7,572.1 2108.2,1077.6 2407.9,836 "/>
<polygon class="st0" points="2118,931.5 1745.2,468.9 1702.2,503.6 2109.6,1009.1 2409.4,767.5 2374.7,724.5 "/>
<polygon class="st0" points="2358.9,582.5 2116.5,777.9 1770.8,348.9 1713.4,395.1 2120.9,900.7 2420.6,659.1 "/>
<rect x="1873.1" y="48.9" transform="matrix(0.7786 -0.6275 0.6275 0.7786 222.8887 1378.9059)" class="st0" width="385" height="649.3"/>
<path class="st0" d="M228.4,819.5V871h77.2c34.9,0,62.5-20.1,82.7-44.1c12.9-12.9,24-31.3,35-45.9c9.2,16.5,20.2,31.2,33.1,45.9
	c22.1,24,51.4,44.1,86.4,44.1l369.5,0l-66.2,64.3l35,38.6L997,858l18.4-18.3L997,823.2L883,703.7l-36.8,36.7l75.4,79H542.8
	c-14.7,0-29.4-9.1-47.8-27.5c-14.8-16.6-29.4-36.8-42.3-60.7c12.9-23.9,25.8-45.9,38.7-60.6c14.7-18.4,27.5-27.6,40.4-27.6h213.3
	l-73.6,71.6l36.8,38.6l115.8-113.9l18.4-18.4l-18.3-18.3L710.1,483.3L671.5,520l69.8,71.7H531.8c-34.9,0-60.7,22.1-79.1,46
	c-12.9,12.8-22.1,27.5-31.3,44.1c-9.1-16.6-18.3-31.3-29.4-44.1c-20.2-23.9-44.1-46-77.2-46h-66.2v51.5h66.2c9.2,0,22,7.3,36.8,27.6
	c12.9,14.7,25.7,36.7,40.4,58.8c-14.7,23.8-27.6,45.9-42.3,62.5c-16.5,18.3-29.4,27.5-44.1,27.5H228.4L228.4,819.5z"/>
<g>
	<defs>
		<circle id="XMLID_00000103967864349411300830000005028852243290087337_" cx="475" cy="1028.1" r="475"/>
	</defs>
	<use xlink:href="#XMLID_00000103967864349411300830000005028852243290087337_"  style="overflow:visible;fill:#1ED760;"/>
	<clipPath id="XMLID_00000016789269218519672540000001351771962027054996_">
		<use xlink:href="#XMLID_00000103967864349411300830000005028852243290087337_"  style="overflow:visible;"/>
	</clipPath>
</g>
<g>
	<defs>
		<circle id="XMLID_00000107586685369717541520000002138107994605630339_" cx="475" cy="1028.1" r="475"/>
	</defs>
	<use xlink:href="#XMLID_00000107586685369717541520000002138107994605630339_"  style="overflow:visible;fill:#1ED760;"/>
	<clipPath id="XMLID_00000098215159579860108220000005757110273546142899_">
		<use xlink:href="#XMLID_00000107586685369717541520000002138107994605630339_"  style="overflow:visible;"/>
	</clipPath>
	<path style="clip-path:url(#XMLID_00000098215159579860108220000005757110273546142899_);fill:#2D46B9;" d="M228.4,819.5V871h77.2
		c34.9,0,62.5-20.1,82.7-44.1c12.9-12.9,24-31.3,35-45.9c9.2,16.5,20.2,31.2,33.1,45.9c22.1,24,51.4,44.1,86.4,44.1l369.5,0
		l-66.2,64.3l35,38.6L997,858l18.4-18.3L997,823.2L883,703.7l-36.8,36.7l75.4,79H542.8c-14.7,0-29.4-9.1-47.8-27.5
		c-14.8-16.6-29.4-36.8-42.3-60.7c12.9-23.9,25.8-45.9,38.7-60.6c14.7-18.4,27.5-27.6,40.4-27.6h213.3l-73.6,71.6l36.8,38.6
		l115.8-113.9l18.4-18.4l-18.3-18.3L710.1,483.3L671.5,520l69.8,71.7H531.8c-34.9,0-60.7,22.1-79.1,46
		c-12.9,12.8-22.1,27.5-31.3,44.1c-9.1-16.6-18.3-31.3-29.4-44.1c-20.2-23.9-44.1-46-77.2-46h-66.2v51.5h66.2
		c9.2,0,22,7.3,36.8,27.6c12.9,14.7,25.7,36.7,40.4,58.8c-14.7,23.8-27.6,45.9-42.3,62.5c-16.5,18.3-29.4,27.5-44.1,27.5H228.4
		L228.4,819.5z"/>
</g>
<circle class="st0" cx="1530.2" cy="1121.1" r="87.3"/>
</svg>
